<svg xmlns="http://www.w3.org/2000/svg" viewBox="0 0 240 48" fill="none">
  <!-- Flame mark -->
  <g transform="translate(0, 9.7) scale(0.667)">
    <path d="M16 44c-7-4-12-11-12-19 0-6 3-12 7-17 1 5 4 9 8 11-1-8 3-16 9-22 0 8 3 14 7 18 3-2 5-6 5-10 3 5 4 10 4 15 0 10-7 19-16 22-1-3-2-7-2-10-3 4-7 8-10 12z" fill="#e74c3c"/>
  </g>

  <!-- "Heizungjob.ch" wordmark — path outlines -->
  <g transform="translate(40,36)">
    <!-- H -->
    <path d="M0-22h4.2v8.8h8.6V-22h4.2v22h-4.2v-9.4H4.2V0H0z" fill="#1e293b"/>
    <!-- e -->
    <path d="M20-9.5c0-5.8 3.8-10 8.8-10 5.2 0 8.4 4 8.4 10.4v1.2H24c.3 3.2 2.5 5 5.4 5 2 0 3.6-.8 4.8-2.2l2.4 2.4c-1.8 2.2-4.4 3.4-7.6 3.4-5.4 0-9-3.8-9-10.2zm4-1.5h9.6c-.3-3-2.2-5-4.6-5-2.6 0-4.5 2-5 5z" fill="#1e293b"/>
    <!-- i -->
    <path d="M40.5-16h4v16h-4zm0-6.5h4v4h-4z" fill="#1e293b"/>
    <!-- z -->
    <path d="M48-16h12.5v3l-8 9.4h8.2V0H48v-3l8-9.4H48z" fill="#1e293b"/>
    <!-- u -->
    <path d="M64-16h4v10.5c0 2.4 1.6 3.8 4 3.8s4-1.4 4-3.8V-16h4V-4.5c0 4.5-3.2 7-8 7s-8-2.5-8-7z" fill="#1e293b"/>
    <!-- n -->
    <path d="M83-16h4v2.8c1.4-2 3.4-3.2 6-3.2 4 0 6.5 2.6 6.5 7V0h-4v-8.4c0-2.8-1.4-4.2-3.8-4.2-2.6 0-4.7 2-4.7 5V0h-4z" fill="#1e293b"/>
    <!-- g -->
    <path d="M103-16h4v2.6c1.4-2 3.4-3.2 6-3.2 4.5 0 7.5 3.8 7.5 9.6 0 5.8-3 10-7.5 10-2.6 0-4.6-1.2-6-3.2V8h-4zm9 12.4c2.8 0 4.8-2.6 4.8-6.4 0-3.8-2-6.4-4.8-6.4-2.8 0-4.8 2.6-4.8 6.4 0 3.8 2 6.4 4.8 6.4z" fill="#1e293b"/>
    <!-- j -->
    <path d="M124-16h4.2v17.5c0 4.2-2.2 6.5-5.8 6.5-1.2 0-2.2-.2-3-.5V4.2c.5.2 1 .3 1.6.3 1.6 0 3-.8 3-3.2zm0-6.5h4.2v4H124z" fill="#e74c3c"/>
    <!-- o -->
    <path d="M132-9.5c0-5.8 4-10.2 9.2-10.2 5.2 0 9.2 4.4 9.2 10.2 0 5.8-4 10.2-9.2 10.2-5.2 0-9.2-4.4-9.2-10.2zm14.2 0c0-3.8-2.2-6.6-5-6.6-2.8 0-5 2.8-5 6.6s2.2 6.6 5 6.6c2.8 0 5-2.8 5-6.6z" fill="#e74c3c"/>
    <!-- b -->
    <path d="M153-22h4v9c1.4-2.2 3.6-3.6 6.2-3.6 4.8 0 8 4.2 8 10 0 5.8-3.2 10.2-8 10.2-2.6 0-4.8-1.4-6.2-3.6V0h-4zm9 18.6c-3 0-5-2.8-5-6.4 0-3.6 2-6.4 5-6.4 3 0 5 2.8 5 6.4 0 3.6-2 6.4-5 6.4z" fill="#e74c3c"/>
    <!-- . -->
    <path d="M174-4.2h4.5V0H174z" fill="#94a3b8"/>
    <!-- c -->
    <path d="M182-9c0-5 3.4-8.6 7.8-8.6 2.4 0 4.2 1 5.4 2.6l-2 2.2c-.8-1-1.8-1.6-3.2-1.6-2.6 0-4.6 2.2-4.6 5.4 0 3.2 2 5.4 4.6 5.4 1.4 0 2.4-.6 3.2-1.6l2 2.2c-1.2 1.6-3 2.6-5.4 2.6-4.4 0-7.8-3.6-7.8-8.6z" fill="#94a3b8"/>
    <!-- h -->
    <path d="M197-18.5h3.5v8.2c1.2-1.8 3-3 5.2-3 3.4 0 5.4 2.2 5.4 6V0h-3.5v-6.6c0-2.4-1.2-3.8-3.2-3.8-2.2 0-3.9 1.8-3.9 4.4V0H197z" fill="#94a3b8"/>
  </g>
</svg>
