<svg xmlns="http://www.w3.org/2000/svg" viewBox="0 0 240 48" fill="none">
  <!-- Flame mark -->
  <g transform="translate(0, 9.7) scale(0.667)">
    <path d="M16 44c-7-4-12-11-12-19 0-6 3-12 7-17 1 5 4 9 8 11-1-8 3-16 9-22 0 8 3 14 7 18 3-2 5-6 5-10 3 5 4 10 4 15 0 10-7 19-16 22-1-3-2-7-2-10-3 4-7 8-10 12z" fill="#e74c3c"/>
  </g>

  <text
    font-family="system-ui, -apple-system, BlinkMacSystemFont, 'Segoe UI', sans-serif"
    font-size="22"
    x="28"
    y="36">
    <tspan font-weight="800" fill="#1e293b">Heizung</tspan><tspan font-weight="800" fill="#e74c3c">job</tspan><tspan font-weight="400" fill="#94a3b8">.ch</tspan>
  </text>
</svg>
